<svg id="Capa_1" data-name="Capa 1" xmlns="http://www.w3.org/2000/svg" viewBox="0 0 80 80"><defs><style>.cls-1{fill:#fff;}.cls-2,.cls-3{fill:#727270;}.cls-3,.cls-4{fill-rule:evenodd;}.cls-4{fill:#67cdfd;}.cls-5{fill:none;stroke:#727270;stroke-miterlimit:10;stroke-width:2.5px;}.cls-6{fill:#606060;}</style></defs><g id="g8"><circle id="circle4" class="cls-1" cx="40" cy="40.3" r="38.8"/><path id="path6" class="cls-2" d="M40,2.8A37.5,37.5,0,1,1,2.5,40.3,37.51,37.51,0,0,1,40,2.8M40,.3a40,40,0,1,0,40,40A40,40,0,0,0,40,.3Z"/></g><g id="g24"><path id="path12" class="cls-3" d="M64,63.9h0c-.3-.7-1.4-1.1-2.7-1-.3.1-.7.1-1.1.2-1.6.5-9.7,3.3-9.8,3.3l-.2.1.1.1c.9.7,1.4,1.5,1.1,2.2-.3,1.1-1.6,1.7-3.7,1.8a26.92,26.92,0,0,1-7.2-.5,3.4,3.4,0,0,1,1,.1c2.1,0,4,0,5.5-.1,2.3-.2,3.5-.7,3.6-1.6.1-.6-.3-1.1-1.1-1.5a18,18,0,0,0-4.4-1c-1.3-.2-2.3-.3-3.2-.5-2.8-.7-5.6-1.5-9-1.2-.5.1-1.1.1-1.6.2-2.5.5-5,1.1-7.7,1.8l-.3.1L27.2,72a15.17,15.17,0,0,1,2.1-.3,7.48,7.48,0,0,1,2.6.1c1.1.2,3.8.7,6.4,1.3s5.2,1.1,6.2,1.2a9.7,9.7,0,0,0,1.7.1,11.67,11.67,0,0,0,3.9-1.5c.4-.3.8-.4,1.2-.7L62.8,66c1.4-1.1,1.4-1.8,1.2-2.1Z"/><path id="path14" class="cls-4" d="M16.2,65.9h5.1a.84.84,0,0,1,.7.4l4.9,7.1c.2.2.1.4-.1.4H21.6a1.27,1.27,0,0,1-.7-.4L13,66.2c-.2-.2,2.9-.3,3.2-.3Z"/><g id="g22"><path id="path16" class="cls-4" d="M31.8,40.5h0a3,3,0,0,1,2.7,2.9,2.71,2.71,0,0,1-5.4-.4,2.65,2.65,0,0,1,2.7-2.5Z"/><path id="path18" class="cls-4" d="M50,29.3h0a3.55,3.55,0,0,1-3.7,3.6,3.65,3.65,0,0,1-3.7-3.8,3.69,3.69,0,0,1,3.8-3.6A3.63,3.63,0,0,1,50,29.3Z"/><path id="path20" class="cls-3" d="M41.5,40.1c-.3.5-.7,1-.9,1.4a25.74,25.74,0,0,1-5.4,6.8,2.57,2.57,0,0,0-.8,2V61.1c0,.8.1,1.6-1,1.6s-1.3-.7-1.2-1.6c0-1.8.1-3.6,0-5.3,0-.4.3-1.3-.5-1.3s-.5.8-.5,1.2c-.1,1.7,0,3.5,0,5.1,0,.9.1,1.8-1.2,1.8s-1-1-1-1.7V51.1a2.34,2.34,0,0,0-.7-2.1c0,1.6.1,2.7,0,3.8,0,.7.1,1.4-.9,1.4s-.8-.8-.8-1.4c0-1.2,0-2.5.1-3.8a1.86,1.86,0,0,1,2.1-2.1c1.2.1,2.4,0,3.5,0,2.1,0,2.9-.8,3.9-2.7a69.2,69.2,0,0,1,6.2-10c.7-.9,1.6-1.5,2.8-.4a2,2,0,0,0,2.5-.1c1-.9,1.6-.5,2.4.2a16.09,16.09,0,0,1,2.4,3.4c1.2,1.8,2.3,3.7,3.4,5.5.5.9,1.2,1.9,0,2.6-1,.7-1.5-.5-1.9-1.2a31.94,31.94,0,0,0-3.1-4.4c.7,2.3,1.4,4.7,2.1,7.1.6,2.1.3,2.6-1.9,2.5-1.2-.1-1.4.4-1.4,1.4.1,3,0,6.1.1,9.2,0,1.1,0,2.3-1.4,2.3s-1.3-1.2-1.3-2.3c0-3,0-5.9-.1-9,0-.5.5-1.6-.5-1.6-1.2,0-.7,1-.7,1.6v9.3c0,.9-.1,1.8-1.1,2C43.3,63,43,62,43,61c0-3.1-.1-6.3,0-9.5.1-1.2-.3-1.7-1.6-1.6-1.8.1-2.2-.5-1.7-2.2.7-2.5,1.4-4.9,2.1-7.3-.1-.1-.2-.1-.3-.3Z"/></g></g><path id="path26" class="cls-5" d="M17.6,40.3a22.4,22.4,0,0,1,44.8,0"/><g id="g48"><path id="path28" class="cls-6" d="M7.2,31.7a2.56,2.56,0,0,1,1.3-1,2.86,2.86,0,0,1,1.6-.1,2.19,2.19,0,0,1,1.4.8,2.35,2.35,0,0,1,.7,1.4,4.15,4.15,0,0,1-.1,1.9L12,35.8l1.9.4-.6,2.6L5.7,37.1l.8-3.6A4.84,4.84,0,0,1,7.2,31.7Zm2.9,1.9a.92.92,0,0,0-.6-.4.82.82,0,0,0-.7.1c-.2.1-.3.4-.4.7l-.2,1,1.8.4.2-.9C10.3,34.1,10.3,33.8,10.1,33.6Z"/><path id="path30" class="cls-6" d="M15.3,26.8l-.4.6,1.7,1-1.3,2.3L8.6,26.8l1.9-3.2a4.42,4.42,0,0,1,1.3-1.4,3,3,0,0,1,1.5-.5,3.43,3.43,0,0,1,1.6.4A2.91,2.91,0,0,1,16,23.2a3.19,3.19,0,0,1,.3,1.4l2.9-.2-1.4,2.4Zm-2.5-2.7a1.7,1.7,0,0,0-.6.6l-.5.8,1.6.9.5-.8a1.34,1.34,0,0,0,.2-.8c0-.2-.2-.4-.4-.6A.78.78,0,0,0,12.8,24.1Z"/><path id="path32" class="cls-6" d="M20.9,21.9a3.76,3.76,0,0,1-2.1-.1A3.6,3.6,0,0,1,17,20.6a3.67,3.67,0,0,1-.9-2,3.73,3.73,0,0,1,.3-2.1,4,4,0,0,1,1.4-1.8,4.12,4.12,0,0,1,2.1-1,3.76,3.76,0,0,1,2.1.1A3.6,3.6,0,0,1,23.8,15a3.67,3.67,0,0,1,.9,2,3.86,3.86,0,0,1-.3,2.1A4,4,0,0,1,23,20.9,4.12,4.12,0,0,1,20.9,21.9Zm1.3-3.4a1.39,1.39,0,0,0,0-.9,2,2,0,0,0-.5-.9,2.1,2.1,0,0,0-.8-.6A1.41,1.41,0,0,0,20,16a1.23,1.23,0,0,0-.8.4,3,3,0,0,0-.5.7,1.39,1.39,0,0,0,0,.9,2,2,0,0,0,.5.9,2.1,2.1,0,0,0,.8.6,1.41,1.41,0,0,0,.9.1,1.23,1.23,0,0,0,.8-.4A1.79,1.79,0,0,0,22.2,18.5Z"/><path id="path34" class="cls-6" d="M26.8,11.6l-2.1.8-.8-1.9,6.6-2.7.8,1.9-2.1.8,2.1,5.3-2.4,1Z"/><path id="path36" class="cls-6" d="M40.7,12.4l.2,2-6.4.6-.7-7.7L40,6.6l.2,2-3.7.3.1.9,3.3-.3.2,1.9-3.3.3.1,1Z"/><path id="path38" class="cls-6" d="M44,14.4a3.82,3.82,0,0,1-1.2-1.7,4.07,4.07,0,0,1-.1-2.2,3.86,3.86,0,0,1,1-1.9,4.18,4.18,0,0,1,1.8-1.1,4.48,4.48,0,0,1,2.3,0,5.45,5.45,0,0,1,1.9.8,5.26,5.26,0,0,1,1.2,1.4L49,10.8a1.85,1.85,0,0,0-1.5-1.2,2.2,2.2,0,0,0-1.4.2,2,2,0,0,0-.8,1.3,1.88,1.88,0,0,0,.2,1.5,1.74,1.74,0,0,0,1.2.8,2,2,0,0,0,1.8-.5l1.3,1.8a3.37,3.37,0,0,1-1.7.8,7.35,7.35,0,0,1-2.1,0A7.81,7.81,0,0,1,44,14.4Z"/><path id="path40" class="cls-6" d="M54.7,12.3l-2-1.1,1-1.8,6.2,3.5-1,1.8-2-1.1-2.8,5-2.3-1.3Z"/><path id="path42" class="cls-6" d="M62.2,14.8l1.9,1.8-5.2,5.7L57,20.5Z"/><path id="path44" class="cls-6" d="M61.5,24.7a4,4,0,0,1,.4-2.1A3.81,3.81,0,0,1,63.4,21a5.22,5.22,0,0,1,2.1-.7,3.84,3.84,0,0,1,2.1.5,4.31,4.31,0,0,1,1.7,1.6,4.53,4.53,0,0,1,.8,2.2,4,4,0,0,1-.4,2.1,3.81,3.81,0,0,1-1.5,1.6A4,4,0,0,1,66,29a5.37,5.37,0,0,1-2.1-.5,4.31,4.31,0,0,1-1.7-1.6A6.26,6.26,0,0,1,61.5,24.7Zm3.2,1.6a2.92,2.92,0,0,0,.9.2,1.43,1.43,0,0,0,1-.4,2.31,2.31,0,0,0,.7-.7,1.49,1.49,0,0,0,.2-.9,1.61,1.61,0,0,0-.3-.9,1.34,1.34,0,0,0-.7-.6,2.92,2.92,0,0,0-.9-.2,1.43,1.43,0,0,0-1,.4,2.31,2.31,0,0,0-.7.7,1.49,1.49,0,0,0-.2.9,1.61,1.61,0,0,0,.3.9A1.34,1.34,0,0,0,64.7,26.3Z"/><path id="path46" class="cls-6" d="M74.4,37.4l-7.6,1.7L66.3,37l2.8-3.6-3.4.8-.5-2.5L72.8,30l.5,2.1-2.8,3.6,3.4-.8Z"/></g><g id="g52"><path id="path50" class="cls-2" d="M40,2.5A37.5,37.5,0,1,1,2.5,40,37.51,37.51,0,0,1,40,2.5M40,0A40,40,0,1,0,80,40,40,40,0,0,0,40,0Z"/></g></svg>