<?xml version="1.0" encoding="utf-8"?>
<!-- Generator: Adobe Illustrator 25.0.0, SVG Export Plug-In . SVG Version: 6.00 Build 0)  -->
<svg version="1.1" id="Capa_1" xmlns="http://www.w3.org/2000/svg" xmlns:xlink="http://www.w3.org/1999/xlink" x="0px" y="0px"
	 viewBox="0 0 80 80" style="enable-background:new 0 0 80 80;" xml:space="preserve">
<style type="text/css">
	.st0{fill:#01BCD2;}
	.st1{fill:#434A9F;}
	.st2{fill:#FFFFFF;}
</style>
<path class="st0" d="M9.9,0H7.6C3.4,0,0,3.3,0,7.3v4V40h5.7h8.9h7.3H40v-9.2v-5.9V11.3V0H9.9z"/>
<path class="st1" d="M70.1,0l2.3,0C76.6,0,80,3.3,80,7.3v4V40h-5.7h-8.9h-7.3H40v-9.2v-5.9V11.3V0L70.1,0z"/>
<path class="st0" d="M70.1,80h2.3c4.2,0,7.6-3.3,7.6-7.3v-4V40h-5.7h-8.9h-7.3H40v9.2v5.9v13.5V80H70.1z"/>
<path class="st1" d="M9.9,80H7.6C3.4,80,0,76.7,0,72.7l0-4L0,40h5.7h8.9h7.3H40v9.2v5.9v13.5V80H9.9z"/>
<path class="st2" d="M70.1,28.7c-1.8-0.9-4.4,0-6,0.9C61.4,31.3,60,34.2,59,37c-0.3,1-0.6,2-0.9,3c-0.4,1.3-0.8,2.5-1.6,3.6
	c-2.4,3.1-4.1,0.1-5.1-3.6c-0.9-3-1.3-6.6-1.4-7.5c-0.5-5.1-0.4-10.2-1.1-15.3c-0.4-2.5-0.6-6.1-2.4-8.1c-1.7-1.8-4-0.1-4.3,1.9
	c-0.3,2.5,0.6,5.3,0.9,7.8c0.3,3.3,0.4,6.6,0.3,9.9c-0.1,2.1,0.7,7.6-0.7,7.7c-1.1,0.1-2.4-3.4-2.8-5c-0.1-0.4-0.2-0.6-0.2-0.7
	c-0.3-1.6-0.5-3.1-0.8-4.6c-1-4.4-2.3-8.8-3.5-13.2c-0.5-1.8-1.8-7-4.6-6.3c-4.5,1.2-0.7,9.6-0.1,12.2c0.8,3.4,1.3,6.7,1.8,10.1
	c0.1,0.9,2.7,10,1,10.6c-1.7,0.6-2.9-6.2-3.9-8.5c-1-2.3-2.3-5.8-3-8.4c-0.6-2.4-1.8-5.7-2.9-7.9c-0.7-1.6-2.8-2.7-4.3-1.5
	c-1,0.8-1.1,2.4-1,3.6c0.2,3,2.4,6.4,3.3,9.3c1.1,3.8,3.3,9.5,4.7,13.8c1,3,1.6,5.3,1,5.7c-1,0.7-4.2-2.7-6.6-5.7
	c-0.6-0.8-1.2-1.5-1.7-2.1c-2.4-3-2.7-5.3-5.4-8.1c-0.9-0.9-2.5-1.7-3.6-0.6c-1.1,1.1-0.6,2.9,0,4.1c1.3,2.8,2.3,4.6,3.8,6.7
	c0.4,0.6,0.8,1.2,1.3,1.8c2.5,3.2,4.9,6.6,6.7,10.3c1.8,3.8,3.2,7.8,4.9,11.6c0.8,1.8,1.7,3.6,3,5.1c0.1,0.1,0.6,0.7,1.2,1.5
	c0.6,0.7,1.5,1.5,2.5,2c0.2,0.1,0.4,0.2,0.5,0.2c1.9,0.7,4.2,0.8,5.8,0.8c0,0,0,0,0,0c0.1,0,0.1,0,0.2,0v0l-0.1,0c0,0,0.1,0,0.1,0
	c0,0,0,0,0,0c0,0,0,0,0,0c0,0,0,0,0,0c3,0,6.2-0.3,9-1.2c0.7-0.2,1.4-0.5,2.1-0.9c0.6-0.3,1.3-0.7,1.9-1.1c3.1-2.2,4.9-5.5,6.4-8.9
	c1.9-4.3,3.8-8.6,4.9-13.3c0.6-2.6,1.3-5.4,2.1-8c0.6-1.8,1.2-3.6,2-5.2C69,33.5,72.3,29.9,70.1,28.7z"/>
</svg>
